<?xml version="1.0" encoding="UTF-8"?>
<svg id="Layer_1" xmlns="http://www.w3.org/2000/svg" version="1.1" viewBox="0 0 227.5 48.3">
  <!-- Generator: Adobe Illustrator 29.1.0, SVG Export Plug-In . SVG Version: 2.1.0 Build 142)  -->
  <defs>
    <style>
      .st0 {
        fill: #231f20;
      }
    </style>
  </defs>
  <path class="st0" d="M0,47.6V8.6c0-1.5,1-2.8,2.5-3.1l7.2-1.6v15.2c1.9-3.5,4.9-5.3,9.4-5.3,7.1,0,11.5,4.4,11.5,13.5v20.2h-9.8v-20.2c0-3.4-1.7-5.2-4.9-5.2s-6.1,2-6.1,7.1v18.3H0Z"/>
  <path class="st0" d="M37.5,12.1v-4c0-1.2.8-2.2,2-2.4l7.8-1.7v8.1c0,0-9.7,0-9.7,0Z"/>
  <rect class="st0" x="37.5" y="14.6" width="9.8" height="32.9"/>
  <path class="st0" d="M54.4,47.6V14.6h8.1l.9,5.3c1.7-3.7,4.9-6,9.7-6s7.9,2.1,9.3,6c2.3-4,5.9-6,10.4-6,7.7,0,12.1,4.4,12.1,13.5v20.2h-9.8v-20.2c0-3.4-1.7-5.2-4.9-5.2s-5.6,1.7-5.6,6.8v18.6h-9.8v-20.2c0-3.4-1.7-5.2-4.9-5.2s-5.6,1.7-5.6,6.8v18.6h-9.8Z"/>
  <path class="st0" d="M148.7,38.5v7.1c-1.5,1.8-4.7,2.7-6.7,2.7-3.9,0-6.7-1.8-7.9-5-1.7,2.8-4.7,5-9.8,5-9.9,0-14.3-6.8-14.3-17.1s6.5-17.2,16.6-17.2,6.9.8,9.7,2l.6-1.3h6.1v22.4c0,2.3,1.1,3,2.3,3s2-.5,3.2-1.5ZM133.4,33.4v-10.3c-1.7-.7-3.5-1-5.6-1-5.2,0-7.5,4-7.5,9.1s2,9,7,9,6.1-3.5,6.1-6.7Z"/>
  <path class="st0" d="M152.4,38.6V8.3c0-1.3.9-2.5,2.2-2.7l7.6-1.6v33.1c0,2.3,1.1,3,2.3,3s2-.5,3.2-1.5v7.1c-1.5,1.8-4.7,2.7-6.7,2.7-5.5,0-8.6-3.5-8.6-9.6Z"/>
  <path class="st0" d="M171.5,38.6V4.1c0-1.2.8-2.2,2-2.4L181.3,0v37c0,2.3,1.1,3,2.3,3s2-.5,3.2-1.5v7.1c-1.5,1.8-4.7,2.7-6.7,2.7-5.5,0-8.6-3.5-8.6-9.6Z"/>
  <path class="st0" d="M227.5,38.5v7.1c-1.5,1.8-4.7,2.7-6.7,2.7-3.9,0-6.7-1.8-7.9-5-1.7,2.8-4.7,5-9.8,5-9.9,0-14.3-6.8-14.3-17.1s6.5-17.2,16.6-17.2,6.9.8,9.7,2l.6-1.3h6.1v22.4c0,2.3,1.1,3,2.3,3s2-.5,3.2-1.5ZM212.1,33.4v-10.3c-1.7-.7-3.5-1-5.6-1-5.2,0-7.5,4-7.5,9.1s2,9,7,9,6.1-3.5,6.1-6.7Z"/>
</svg>